<?xml version="1.0" encoding="UTF-8" standalone="no"?>
<!DOCTYPE svg PUBLIC "-//W3C//DTD SVG 1.1//EN" "http://www.w3.org/Graphics/SVG/1.1/DTD/svg11.dtd">
<svg  xmlns="http://www.w3.org/2000/svg" xmlns:xlink="http://www.w3.org/1999/xlink" viewBox="0 0 70 61">
    <path fill="#19C5FF" fill-rule="nonzero" d="M33.997 53.217h1.05c13.657 0 26.358-6.462 26.358-22.522 0-5.702-1.623-11.499-5.92-16.25-3.725-3.802-9.932-6.938-19.387-7.223-.286 0-.668.095-1.05.095-13.752-.19-26.453 6.177-26.453 22.333 0 5.702 1.623 11.499 5.92 16.25 3.725 3.801 10.028 6.937 19.482 7.317zM34.857 0C58.445 0 70 13.4 70 30.41c0 13.494-6.78 19.766-10.696 22.712-2.483 1.901-9.263 7.223-23.97 7.223h-.477C11.555 60.25 0 46.85 0 29.84 0 16.345 6.78 10.168 10.696 7.222 13.179 5.322 19.959 0 34.666 0h.19zm-4.298 34.686h8.977v-9.123H30.56v9.123z">
    </path>
</svg>